<svg width="1304" height="300" viewBox="0 0 1304 300" fill="none" xmlns="http://www.w3.org/2000/svg">
<path opacity="0.5" d="M746.024 363.669C740.739 348.977 726.278 337.307 708.797 329.374C688.354 320.097 664.718 316.235 641.022 314.178C613.146 311.743 585.095 311.197 557.509 307.042C531.491 303.138 506.17 296.967 482.184 288.739C458.78 280.68 437.582 270.311 416.442 259.523C396.522 249.364 376.079 239.206 352.733 233.581C298.722 220.61 242.156 238.03 191.281 250.582C134.948 264.518 78.6138 278.413 22.28 292.349C15.2527 294.07 8.28357 295.834 1.25635 297.555C0.791748 297.681 1.02411 298.184 1.4306 298.058C56.8352 284.374 112.24 270.689 167.644 257.004C194.708 250.33 221.655 243.152 249.067 237.317C276.189 231.566 304.762 227.494 332.987 230.684C357.843 233.455 380.029 242.312 400.704 252.345C421.495 262.419 441.299 273.501 463.252 282.317C485.379 291.216 508.899 298.268 533.233 303.306C558.264 308.511 583.818 311.071 609.719 312.625C636.202 314.22 663.44 315.479 688.413 322.573C709.03 328.45 728.717 338.483 739.403 352.839C741.959 356.281 743.933 359.975 745.327 363.837C745.443 364.131 746.14 364.005 746.024 363.669Z" fill="#6699CC" stroke="#6699CC" stroke-width="0.5"/>
<path opacity="0.5" d="M551.424 -24.9965C557.628 -10.6681 572.798 0.0634305 590.746 6.8754C611.735 14.8406 635.569 17.1994 659.347 17.7532C687.321 18.4194 715.35 17.1894 743.144 19.5917C769.357 21.8418 795.018 26.3982 819.476 33.092C843.344 39.6549 865.155 48.6615 886.935 58.0908C907.457 66.9688 928.502 75.8137 952.158 79.9505C1006.88 89.4786 1062.23 68.5143 1112.21 52.7696C1167.55 35.297 1222.89 17.8664 1278.23 0.393869C1285.13 -1.76834 1291.98 -3.96875 1298.88 -6.13096C1299.34 -6.28603 1299.07 -6.77405 1298.68 -6.62266C1244.25 10.5397 1189.82 27.7021 1135.39 44.8645C1108.81 53.2377 1082.37 62.1063 1055.38 69.6637C1028.68 77.1189 1000.42 82.9902 972.047 81.5919C947.065 80.3995 924.364 72.9634 903.096 64.2589C881.709 55.5198 861.244 45.7127 838.777 38.3039C816.131 30.8223 792.212 25.2722 767.608 21.7845C742.298 18.1732 716.633 17.2343 690.685 17.3229C664.155 17.4063 636.892 17.8727 611.52 12.3725C590.573 7.81175 570.29 -0.955274 558.717 -14.6068C555.949 -17.8804 553.745 -21.4421 552.109 -25.2082C551.975 -25.4941 551.287 -25.3243 551.424 -24.9965Z" fill="#6699CC" stroke="#6699CC" stroke-width="0.5"/>
<path opacity="0.5" d="M870.026 386.669C864.741 371.977 850.28 360.307 832.799 352.374C812.356 343.097 788.719 339.235 765.024 337.178C737.148 334.743 709.097 334.197 681.511 330.042C655.493 326.138 630.171 319.967 606.186 311.739C582.781 303.68 561.584 293.311 540.444 282.523C520.524 272.364 500.081 262.206 476.734 256.581C422.724 243.61 366.158 261.03 315.283 273.582C258.949 287.518 202.615 301.413 146.282 315.349C139.254 317.07 132.285 318.834 125.258 320.555C124.793 320.681 125.026 321.184 125.432 321.058C180.837 307.374 236.241 293.689 291.646 280.004C318.709 273.33 345.657 266.152 373.069 260.317C400.19 254.566 428.764 250.494 456.989 253.684C481.845 256.455 504.03 265.312 524.705 275.345C545.496 285.419 565.3 296.501 587.253 305.317C609.38 314.216 632.901 321.268 657.235 326.306C682.266 331.511 707.819 334.071 733.721 335.625C760.204 337.22 787.441 338.479 812.414 345.573C833.031 351.45 852.719 361.483 863.405 375.839C865.96 379.281 867.935 382.975 869.329 386.837C869.445 387.131 870.142 387.005 870.026 386.669Z" fill="#6699CC" stroke="#6699CC" stroke-width="0.5"/>
<path opacity="0.5" d="M395.033 -57.5351C401.237 -43.2067 416.407 -32.4751 434.355 -25.6632C455.344 -17.698 479.178 -15.3391 502.955 -14.7854C530.93 -14.1191 558.959 -15.3491 586.753 -12.9469C612.966 -10.6968 638.627 -6.14033 663.085 0.553394C686.952 7.11628 708.764 16.1229 730.544 25.5522C751.066 34.4302 772.111 43.2752 795.767 47.4119C850.49 56.9401 905.84 35.9757 955.819 20.231C1011.16 2.75848 1066.5 -14.6722 1121.84 -32.1447C1128.74 -34.3069 1135.59 -36.5073 1142.49 -38.6695C1142.95 -38.8246 1142.68 -39.3126 1142.29 -39.1612C1087.86 -21.9988 1033.43 -4.83646 979.002 12.3259C952.415 20.6991 925.976 29.5677 898.988 37.1251C872.285 44.5803 844.026 50.4517 815.656 49.0534C790.674 47.8609 767.973 40.4249 746.705 31.7203C725.318 22.9812 704.852 13.1742 682.386 5.76535C659.74 -1.71625 635.82 -7.26634 611.217 -10.7541C585.907 -14.3654 560.242 -15.3043 534.294 -15.2157C507.763 -15.1322 480.501 -14.6659 455.129 -20.166C434.182 -24.7268 413.899 -33.4938 402.326 -47.1454C399.558 -50.419 397.353 -53.9807 395.718 -57.7467C395.584 -58.0327 394.896 -57.8629 395.033 -57.5351Z" fill="#6699CC" stroke="#6699CC" stroke-width="0.5"/>
</svg>
