<svg width="21" height="18" viewBox="0 0 21 18" fill="none" xmlns="http://www.w3.org/2000/svg">
<path d="M20.3067 6.06511H19.3647V3.89368H4.10571C3.61693 3.89368 3.21701 4.29089 3.21701 4.77637V16.2514H19.3647V10.4786H20.3067V6.06511Z" fill="#76BC21"/>
<path d="M16.5566 9.11924C17.0365 9.11924 17.4364 8.73086 17.4364 8.2542C17.4364 7.77755 17.0453 7.38916 16.5566 7.38916C16.0678 7.38916 15.6768 7.77755 15.6768 8.2542C15.6768 8.73086 16.0678 9.11924 16.5566 9.11924Z" fill="#262626"/>
<path d="M20.2535 5.32361V2.85207C20.2535 1.7487 19.3559 0.857178 18.245 0.857178H2.00847C0.897596 0.857178 0 1.7487 0 2.85207V15.148C0 16.2514 0.897596 17.1429 2.00847 17.1429H18.245C19.3559 17.1429 20.2535 16.2514 20.2535 15.148V11.1847H21V5.32361H20.2535ZM19.2315 5.32361H14.9746L12.7173 8.45718L14.9568 11.1229L14.9924 11.1671H19.2226V15.1303C19.2226 15.6776 18.7783 16.119 18.2273 16.119H1.99069C1.4397 16.119 0.995354 15.6776 0.995354 15.1303V2.85207C0.995354 2.3048 1.4397 1.86345 1.99069 1.86345H18.2273C18.7783 1.86345 19.2226 2.3048 19.2226 2.85207V5.32361H19.2315ZM19.9869 6.33871V10.1696H15.4812L14.0059 8.41304L15.4989 6.32988H19.9869V6.33871Z" fill="#262626"/>
</svg>
